<svg width="21" height="12" viewBox="0 0 21 12" fill="none" xmlns="http://www.w3.org/2000/svg">
<g clip-path="url(#clip0_15_12)">
<rect x="21" width="3" height="3" transform="rotate(90 21 0)" fill="#283739"/>
<rect x="18" y="3" width="3" height="3" transform="rotate(90 18 3)" fill="#283739"/>
<rect x="15" y="6" width="3" height="3" transform="rotate(90 15 6)" fill="#283739"/>
<rect x="12" y="9" width="3" height="3" transform="rotate(90 12 9)" fill="#283739"/>
<rect x="9" y="6" width="3" height="3" transform="rotate(90 9 6)" fill="#283739"/>
<rect x="6" y="3" width="3" height="3" transform="rotate(90 6 3)" fill="#283739"/>
<rect x="3" width="3" height="3" transform="rotate(90 3 0)" fill="#283739"/>
<rect x="18" y="3" width="3" height="3" transform="rotate(90 18 3)" fill="#283739"/>
</g>
<defs>
<clipPath id="clip0_15_12">
<rect width="12" height="21" fill="white" transform="translate(21) rotate(90)"/>
</clipPath>
</defs>
</svg>
